<svg width="4469" height="2048" viewBox="0 0 4469 2048" fill="none" xmlns="http://www.w3.org/2000/svg">
<g clip-path="url(#clip0_130_51)">
<path fill-rule="evenodd" clip-rule="evenodd" d="M200 0H1408V685.334C1314.18 579.041 1176.92 512 1024 512C741.23 512 512 741.23 512 1024C512 1176.92 579.041 1314.18 685.334 1408H0V200C0 89.5431 89.5431 0 200 0ZM1024 1536H0V1848C0 1958.46 89.5431 2048 200 2048H1848C1958.46 2048 2048 1958.46 2048 1848V200C2048 89.5431 1958.46 0 1848 0H1536V1024C1536 1306.77 1306.77 1536 1024 1536ZM1408 1024C1408 1236.08 1236.08 1408 1024 1408C811.923 1408 640 1236.08 640 1024C640 811.923 811.923 640 1024 640C1236.08 640 1408 811.923 1408 1024Z" fill="#EA580C"/>
<path d="M2109 1047.85C2109 968.89 2124.98 899.8 2156.94 840.58C2188.9 780.42 2232.61 733.89 2288.07 700.99C2344.47 668.09 2406.98 651.64 2475.6 651.64C2543.28 651.64 2602.03 666.21 2651.85 695.35C2701.67 724.49 2738.8 761.15 2763.24 805.33V664.33H2892.96V1437.01H2763.24V1293.19C2737.86 1338.31 2699.79 1375.91 2649.03 1405.99C2599.21 1435.13 2540.93 1449.7 2474.19 1449.7C2405.57 1449.7 2343.53 1432.78 2288.07 1398.94C2232.61 1365.1 2188.9 1317.63 2156.94 1256.53C2124.98 1195.43 2109 1125.87 2109 1047.85ZM2763.24 1049.26C2763.24 990.98 2751.49 940.22 2727.99 896.98C2704.49 853.74 2672.53 820.84 2632.11 798.28C2592.63 774.78 2548.92 763.03 2500.98 763.03C2453.04 763.03 2409.33 774.31 2369.85 796.87C2330.37 819.43 2298.88 852.33 2275.38 895.57C2251.88 938.81 2240.13 989.57 2240.13 1047.85C2240.13 1107.07 2251.88 1158.77 2275.38 1202.95C2298.88 1246.19 2330.37 1279.56 2369.85 1303.06C2409.33 1325.62 2453.04 1336.9 2500.98 1336.9C2548.92 1336.9 2592.63 1325.62 2632.11 1303.06C2672.53 1279.56 2704.49 1246.19 2727.99 1202.95C2751.49 1158.77 2763.24 1107.54 2763.24 1049.26Z" fill="#EA580C"/>
<path d="M3176.06 538.84C3151.62 538.84 3130.94 530.38 3114.02 513.46C3097.1 496.54 3088.64 475.86 3088.64 451.42C3088.64 426.98 3097.1 406.3 3114.02 389.38C3130.94 372.46 3151.62 364 3176.06 364C3199.56 364 3219.3 372.46 3235.28 389.38C3252.2 406.3 3260.66 426.98 3260.66 451.42C3260.66 475.86 3252.2 496.54 3235.28 513.46C3219.3 530.38 3199.56 538.84 3176.06 538.84ZM3238.1 664.33V1437.01H3109.79V664.33H3238.1Z" fill="#EA580C"/>
<path d="M3585.09 393.61V1437.01H3456.78V393.61H3585.09Z" fill="#EA580C"/>
<path d="M4469.3 664.33L4004 1800.79H3871.46L4023.74 1428.55L3712.13 664.33H3854.54L4097.06 1290.37L4336.76 664.33H4469.3Z" fill="#EA580C"/>
</g>
<defs>
<clipPath id="clip0_130_51">
<rect width="4468.93" height="2048" fill="white"/>
</clipPath>
</defs>
</svg>
