<svg width="2048" height="2048" viewBox="0 0 2048 2048" fill="none" xmlns="http://www.w3.org/2000/svg">
<g clip-path="url(#clip0_130_51)">
<path fill-rule="evenodd" clip-rule="evenodd" d="M0 0H1408V685.334C1314.18 579.041 1176.92 512 1024 512C741.23 512 512 741.23 512 1024C512 1176.92 579.041 1314.18 685.334 1408H0V0ZM1024 1536H0V2048H2048V0H1536V1024C1536 1306.77 1306.77 1536 1024 1536ZM1408 1024C1408 1236.08 1236.08 1408 1024 1408C811.923 1408 640 1236.08 640 1024C640 811.923 811.923 640 1024 640C1236.08 640 1408 811.923 1408 1024Z" fill="#EA580C"/>
</g>
<defs>
<clipPath id="clip0_130_51">
<rect width="2048" height="2048" fill="white"/>
</clipPath>
</defs>
</svg>
