<svg xmlns="http://www.w3.org/2000/svg">
    <symbol id="notes">
        <path d="M166,128a6,6,0,0,1-6,6H96a6,6,0,0,1,0-12h64A6,6,0,0,1,166,128Zm-6,26H96a6,6,0,0,0,0,12h64a6,6,0,0,0,0-12ZM214,40V200a30,30,0,0,1-30,30H72a30,30,0,0,1-30-30V40a6,6,0,0,1,6-6H74V24a6,6,0,0,1,12,0V34h36V24a6,6,0,0,1,12,0V34h36V24a6,6,0,0,1,12,0V34h26A6,6,0,0,1,214,40Zm-12,6H182V56a6,6,0,0,1-12,0V46H134V56a6,6,0,0,1-12,0V46H86V56a6,6,0,0,1-12,0V46H54V200a18,18,0,0,0,18,18H184a18,18,0,0,0,18-18Z"></path>
    </symbol>
    <symbol id="tags">
        <path d="M224,90H173l8.89-48.93a6,6,0,1,0-11.8-2.14L160.81,90H109l8.89-48.93a6,6,0,0,0-11.8-2.14L96.81,90H48a6,6,0,0,0,0,12H94.63l-9.46,52H32a6,6,0,0,0,0,12H83L74.1,214.93a6,6,0,0,0,4.83,7A5.64,5.64,0,0,0,80,222a6,6,0,0,0,5.89-4.93L95.19,166H147l-8.89,48.93a6,6,0,0,0,4.83,7,5.64,5.64,0,0,0,1.08.1,6,6,0,0,0,5.89-4.93L159.19,166H208a6,6,0,0,0,0-12H161.37l9.46-52H224a6,6,0,0,0,0-12Zm-74.83,64H97.37l9.46-52h51.8Z"></path>
    </symbol>
    <symbol id="budget">
        <path d="M190,116a10,10,0,1,1-10-10A10,10,0,0,1,190,116ZM152,66H112a6,6,0,0,0,0,12h40a6,6,0,0,0,0-12Zm94,46v32a22,22,0,0,1-22,22h-3.77l-16.68,46.71A14,14,0,0,1,190.36,222H177.64a14,14,0,0,1-13.19-9.29L162.06,206H101.94l-2.39,6.71A14,14,0,0,1,86.36,222H73.64a14,14,0,0,1-13.19-9.29L47.76,177.18a85.72,85.72,0,0,1-21.47-50.24A18,18,0,0,0,14,144a6,6,0,0,1-12,0,30,30,0,0,1,24.19-29.43A86.1,86.1,0,0,1,112,34H216a6,6,0,0,1,0,12H187.82a85.92,85.92,0,0,1,35.12,39.83c.6,1.38,1.16,2.77,1.68,4.18A22,22,0,0,1,246,112Zm-12,0a10,10,0,0,0-10-10h-3.66a6,6,0,0,1-5.73-4.2,71.4,71.4,0,0,0-2.68-7.19A74,74,0,0,0,144,46H112A74,74,0,0,0,57.44,170a5.81,5.81,0,0,1,1.22,2l13.09,36.64A2,2,0,0,0,73.64,210H86.36a2,2,0,0,0,1.89-1.33L92.06,198a6,6,0,0,1,5.65-4h68.58a6,6,0,0,1,5.65,4l3.81,10.69a2,2,0,0,0,1.89,1.33h12.72a2,2,0,0,0,1.89-1.33L210.35,158a6,6,0,0,1,5.65-4h8a10,10,0,0,0,10-10Z"></path>
    </symbol>
    <symbol id="settings">
        <path d="M128,82a46,46,0,1,0,46,46A46.06,46.06,0,0,0,128,82Zm0,80a34,34,0,1,1,34-34A34,34,0,0,1,128,162ZM214,130.84c.06-1.89.06-3.79,0-5.68L229.33,106a6,6,0,0,0,1.11-5.29A105.34,105.34,0,0,0,219.76,74.9a6,6,0,0,0-4.53-3l-24.45-2.71q-1.93-2.07-4-4l-2.72-24.46a6,6,0,0,0-3-4.53,105.65,105.65,0,0,0-25.77-10.66A6,6,0,0,0,150,26.68l-19.2,15.37c-1.89-.06-3.79-.06-5.68,0L106,26.67a6,6,0,0,0-5.29-1.11A105.34,105.34,0,0,0,74.9,36.24a6,6,0,0,0-3,4.53L69.23,65.22q-2.07,1.94-4,4L40.76,72a6,6,0,0,0-4.53,3,105.65,105.65,0,0,0-10.66,25.77A6,6,0,0,0,26.68,106l15.37,19.2c-.06,1.89-.06,3.79,0,5.68L26.67,150.05a6,6,0,0,0-1.11,5.29A105.34,105.34,0,0,0,36.24,181.1a6,6,0,0,0,4.53,3l24.45,2.71q1.94,2.07,4,4L72,215.24a6,6,0,0,0,3,4.53,105.65,105.65,0,0,0,25.77,10.66,6,6,0,0,0,5.29-1.11L125.16,214c1.89.06,3.79.06,5.68,0l19.21,15.38a6,6,0,0,0,3.75,1.31,6.2,6.2,0,0,0,1.54-.2,105.34,105.34,0,0,0,25.76-10.68,6,6,0,0,0,3-4.53l2.71-24.45q2.07-1.93,4-4l24.46-2.72a6,6,0,0,0,4.53-3,105.49,105.49,0,0,0,10.66-25.77,6,6,0,0,0-1.11-5.29Zm-3.1,41.63-23.64,2.63a6,6,0,0,0-3.82,2,75.14,75.14,0,0,1-6.31,6.31,6,6,0,0,0-2,3.82l-2.63,23.63A94.28,94.28,0,0,1,155.14,218l-18.57-14.86a6,6,0,0,0-3.75-1.31h-.36a78.07,78.07,0,0,1-8.92,0,6,6,0,0,0-4.11,1.3L100.87,218a94.13,94.13,0,0,1-17.34-7.17L80.9,187.21a6,6,0,0,0-2-3.82,75.14,75.14,0,0,1-6.31-6.31,6,6,0,0,0-3.82-2l-23.63-2.63A94.28,94.28,0,0,1,38,155.14l14.86-18.57a6,6,0,0,0,1.3-4.11,78.07,78.07,0,0,1,0-8.92,6,6,0,0,0-1.3-4.11L38,100.87a94.13,94.13,0,0,1,7.17-17.34L68.79,80.9a6,6,0,0,0,3.82-2,75.14,75.14,0,0,1,6.31-6.31,6,6,0,0,0,2-3.82l2.63-23.63A94.28,94.28,0,0,1,100.86,38l18.57,14.86a6,6,0,0,0,4.11,1.3,78.07,78.07,0,0,1,8.92,0,6,6,0,0,0,4.11-1.3L155.13,38a94.13,94.13,0,0,1,17.34,7.17l2.63,23.64a6,6,0,0,0,2,3.82,75.14,75.14,0,0,1,6.31,6.31,6,6,0,0,0,3.82,2l23.63,2.63A94.28,94.28,0,0,1,218,100.86l-14.86,18.57a6,6,0,0,0-1.3,4.11,78.07,78.07,0,0,1,0,8.92,6,6,0,0,0,1.3,4.11L218,155.13A94.13,94.13,0,0,1,210.85,172.47Z"></path>
    </symbol>
    <symbol id="eye-closed">
        <path d="M52.44,36A6,6,0,0,0,43.56,44L64.44,67c-37.28,21.9-53.23,57-53.92,58.57a6,6,0,0,0,0,4.88c.34.77,8.66,19.22,27.24,37.8C55,185.47,84.62,206,128,206a124.91,124.91,0,0,0,52.57-11.25l23,25.29a6,6,0,0,0,8.88-8.08Zm48.62,71.32,45,49.52a34,34,0,0,1-45-49.52ZM128,194c-31.38,0-58.78-11.42-81.45-33.93A134.57,134.57,0,0,1,22.69,128c4.29-8.2,20.1-35.18,50-51.91L92.89,98.3a46,46,0,0,0,61.35,67.48l17.81,19.6A113.47,113.47,0,0,1,128,194Zm6.4-99.4a6,6,0,0,1,2.25-11.79,46.17,46.17,0,0,1,37.15,40.87,6,6,0,0,1-5.42,6.53l-.56,0a6,6,0,0,1-6-5.45A34.1,34.1,0,0,0,134.4,94.6Zm111.08,35.85c-.41.92-10.37,23-32.86,43.12a6,6,0,1,1-8-8.94A134.07,134.07,0,0,0,233.31,128a134.67,134.67,0,0,0-23.86-32.07C186.78,73.42,159.38,62,128,62a120.19,120.19,0,0,0-19.69,1.6,6,6,0,1,1-2-11.83A131.12,131.12,0,0,1,128,50c43.38,0,73,20.54,90.24,37.76,18.58,18.58,26.9,37,27.24,37.81A6,6,0,0,1,245.48,130.45Z"></path>
    </symbol>
    <symbol id="eye-open">
        <path d="M245.48,125.57c-.34-.78-8.66-19.23-27.24-37.81C201,70.54,171.38,50,128,50S55,70.54,37.76,87.76c-18.58,18.58-26.9,37-27.24,37.81a6,6,0,0,0,0,4.88c.34.77,8.66,19.22,27.24,37.8C55,185.47,84.62,206,128,206s73-20.53,90.24-37.75c18.58-18.58,26.9-37,27.24-37.8A6,6,0,0,0,245.48,125.57ZM128,194c-31.38,0-58.78-11.42-81.45-33.93A134.77,134.77,0,0,1,22.69,128,134.56,134.56,0,0,1,46.55,95.94C69.22,73.42,96.62,62,128,62s58.78,11.42,81.45,33.94A134.56,134.56,0,0,1,233.31,128C226.94,140.21,195,194,128,194Zm0-112a46,46,0,1,0,46,46A46.06,46.06,0,0,0,128,82Zm0,80a34,34,0,1,1,34-34A34,34,0,0,1,128,162Z"></path>
    </symbol>
</svg>